# xmcd CD database file
#
# Track frame offsets:
#	150
#	15755
#	36290
#	56310
#	78223
#	93513
#	110950
#	129743
#	149218
#	166353
#	180908
#	197153
#
# Disc length: 2904 seconds
#
# Revision: 4
# Processed by: cddbd v1.5.1PL2 Copyright (c) Steve Scherf et al.
# Submitted via: CDex 1.51
#
DISCID=9f0b560c
DTITLE=Freak Kitchen - Dead Soul Men
DYEAR=2000
DGENRE=Heavy Metal
TTITLE0=Silence!
TTITLE1=Gun God
TTITLE2=Ugly Side Of Me
TTITLE3=Everything Is Under Control
TTITLE4=Get A Life
TTITLE5=The Sinking Planet
TTITLE6=Dead Soul Man
TTITLE7=I Refuse
TTITLE8=Black Spider Flag
TTITLE9=Super Model Baby
TTITLE10=Slap Me In The Face
TTITLE11=Shithead
EXTD=YEAR: 2000
EXTT0=
EXTT1=
EXTT2=
EXTT3=
EXTT4=
EXTT5=
EXTT6=
EXTT7=
EXTT8=
EXTT9=
EXTT10=
EXTT11=
PLAYORDER=
